<mxfile host="app.diagrams.net" modified="2023-07-27T12:23:07.035Z" agent="Mozilla/5.0 (Macintosh; Intel Mac OS X 10_15_7) AppleWebKit/537.36 (KHTML, like Gecko) Chrome/115.0.0.0 Safari/537.36" version="21.6.5" etag="dwqTTxCoWRuZmvd8Jaq6" type="github">
  <diagram name="Page-1" id="abbKt3IP7O4MDkvVQpnk">
    <mxGraphModel>
      <root>
        <mxCell id="0" />
        <mxCell id="1" parent="0" />
      </root>
    </mxGraphModel>
  </diagram>
</mxfile>
